# xmcd
#
# Track frame offsets:
#	182
#	15085
#	26920
#	40150
#	51007
#	65055
#	77450
#	89950
#	102620
#	115637
#	127477
#	140460
#	150650
#	167455
#	177365
#	188922
#	198487
#	210130
#	224250
#	236750
#	250722
#	261392
#	275587
#	289982
#
# Disc length: 3995 seconds
# Revision: 0
# Processed by: cddbd v1.5.2PL0 Copyright (c) Steve Scherf et al.
# Submitted via: dBpowerAMP V12.0
#
DISCID=650f9918
DTITLE=Eddy Arnold - Welcome To My World 
DYEAR=1997
DGENRE=Country
TTITLE0=You're Cheatin' Heart
TTITLE1=Don't Rob Another Man's Castle
TTITLE2=Release Me [And Let Me LOVE Again]
TTITLE3=I Can't Stop LOVING You
TTITLE4=They Don't Make LOVE Like They Used To
TTITLE5=Cold Cold Heart
TTITLE6=Oh Lonesome Me
TTITLE7=Faded LOVE
TTITLE8=Half As Much
TTITLE9=Wichita Lineman
TTITLE10=Take Me Home Country Roads
TTITLE11=Tennessee Waltz
TTITLE12=Little Green Apples
TTITLE13=Wanderin'
TTITLE14=Gotta Travel On
TTITLE15=Oklahoma Hills
TTITLE16=The Rovin' Gambler
TTITLE17=Across The Wide Missouri
TTITLE18=May The Good Lord Bless And Keep You
TTITLE19=God Walks These Hills With Me
TTITLE20=Take My Hand,Precious Lord
TTITLE21=Chapel On The Hill
TTITLE22=It Is No Secret [What God Can Do]
TTITLE23=Blessed Assurance
EXTD=
EXTT0=
EXTT1=
EXTT2=
EXTT3=
EXTT4=
EXTT5=
EXTT6=
EXTT7=
EXTT8=
EXTT9=
EXTT10=
EXTT11=
EXTT12=
EXTT13=
EXTT14=
EXTT15=
EXTT16=
EXTT17=
EXTT18=
EXTT19=
EXTT20=
EXTT21=
EXTT22=
EXTT23=
PLAYORDER=
